<svg width="76" height="76" viewBox="0 0 76 76" fill="none" xmlns="http://www.w3.org/2000/svg">
<path d="M67.4409 23.0849C66.5644 11.9814 54.1491 13.1152 54.1491 13.1152C48.9087 3.83661 40.7225 10.5573 40.7225 10.5573C34.4334 1.46363 26.5479 9.8903 26.5479 9.8903C12.9522 8.41765 13.4792 19.5827 13.4792 19.5827C13.1592 23.132 15.3953 34.1125 15.3953 34.1125C13.3782 27.7837 9.00332 33.0372 9.00332 33.0372C3.62501 41.3736 7.67355 45.9369 7.67355 45.9369C14.9512 54.5045 30.4607 64.7868 30.4607 64.7868C36.0766 68.0183 33.7012 70.8998 33.7012 70.8998L67.6693 65.2622L68.4502 58.7918C73.6138 43.1052 67.4409 23.0849 67.4409 23.0849Z" fill="#666B81"/>
</svg>
