<svg width="61" height="82" viewBox="0 0 61 82" fill="none" xmlns="http://www.w3.org/2000/svg">
<path fill-rule="evenodd" clip-rule="evenodd" d="M27.4439 27.9064C27.8677 24.8909 26.3711 22.0387 23.8868 20.5934L22.0339 5.51131C21.7169 2.91678 23.5599 0.584768 26.1305 0.270768C28.703 -0.0468855 31.0541 1.79014 31.3715 4.3642L34.9751 33.7143C33.4828 33.5045 32.295 33.3343 31.3423 33.1978L31.3415 33.1977L31.3408 33.1976C27.52 32.6501 27.4838 32.6449 26.7555 32.805L27.4439 27.9064ZM17.5373 46.0591C20.1056 46.4201 22.4883 44.6246 22.8493 42.0563L24.8884 27.5472C25.2494 24.9789 23.4538 22.5962 20.8855 22.2352C18.3172 21.8743 15.9329 23.6696 15.5719 26.2379L13.5328 40.7469C13.1718 43.3152 14.969 45.6982 17.5373 46.0591ZM6.13946 45.8028C8.3452 46.1128 10.3893 44.571 10.6993 42.3652L12.3676 30.4948C12.6774 28.2907 11.1374 26.2451 8.93167 25.9351C6.72753 25.6254 4.68178 27.1669 4.37201 29.3711L2.70373 41.2415C2.39373 43.4473 3.93531 45.493 6.13946 45.8028ZM60.3759 9.76794C58.8159 5.91772 53.3284 5.82601 51.6838 9.69461L41.1211 34.578C44.3345 35.0296 46.7285 36.4364 48.4717 38.7497L49.176 39.6842L60.3437 13.3695C60.8354 12.2121 60.8457 10.9334 60.3759 9.76794ZM48.5509 43.1434C48.6995 43.3405 48.848 43.5376 49.1704 43.9654C51.4381 46.9748 52.5457 50.8687 51.9857 54.8535L50.7753 63.4657C49.1879 74.7611 38.7075 82.66 27.4121 81.0726L18.1786 79.7749C6.88317 78.1874 -1.01554 67.7055 0.571932 56.41L1.97421 46.4323C4.89635 49.4236 9.8305 48.9785 12.1805 45.5131C15.7232 50.6764 23.6479 49.2347 25.2318 43.2755C26.8427 45.8131 29.5136 47.6576 32.716 48.1077L38.5826 48.9322C38.8368 49.5502 38.9712 50.194 39.0008 50.8119C28.9344 51.3272 20.4692 58.9914 19.0492 69.0954C18.95 69.8013 19.4414 70.4535 20.1474 70.5527C20.8534 70.6519 21.5055 70.1605 21.6047 69.4545C22.9033 60.2147 30.9051 53.2981 40.2204 53.3645C40.8663 53.369 41.4168 52.8942 41.5068 52.2537C41.8657 49.7003 40.8912 47.2679 40.2406 46.7302C40.2014 46.6998 40.17 46.6739 40.1367 46.6506C39.8551 46.4537 39.4406 46.4468 33.0752 45.5521C28.6893 44.9357 25.6226 40.8661 26.239 36.4802C26.347 35.7115 27.0512 35.2066 27.7894 35.3104L41.1133 37.1829C43.2376 37.4815 45.1195 38.5897 46.4096 40.3036C47.9736 42.3776 48.2623 42.7605 48.5509 43.1434Z" fill="#666B81"/>
</svg>
